<mxfile host="Electron" agent="Mozilla/5.0 (Macintosh; Intel Mac OS X 10_15_7) AppleWebKit/537.36 (KHTML, like Gecko) draw.io/24.7.5 Chrome/126.0.6478.183 Electron/31.3.0 Safari/537.36" version="24.7.5">
  <diagram name="PÃ¡gina-1" id="VCy-eW5syfKEkDUVPI0Y">
    <mxGraphModel dx="1621" dy="1703" grid="1" gridSize="10" guides="1" tooltips="1" connect="1" arrows="1" fold="1" page="1" pageScale="1" pageWidth="827" pageHeight="1169" math="0" shadow="0">
      <root>
        <mxCell id="0" />
        <mxCell id="1" parent="0" />
        <mxCell id="jscMWhYlnVa92hubvsvF-35" style="edgeStyle=orthogonalEdgeStyle;rounded=0;orthogonalLoop=1;jettySize=auto;html=1;exitX=1;exitY=0.5;exitDx=0;exitDy=0;entryX=0;entryY=0.5;entryDx=0;entryDy=0;endArrow=none;endFill=0;" parent="1" source="jscMWhYlnVa92hubvsvF-1" edge="1">
          <mxGeometry relative="1" as="geometry">
            <mxPoint x="290" y="130" as="targetPoint" />
          </mxGeometry>
        </mxCell>
        <mxCell id="jscMWhYlnVa92hubvsvF-1" value="LIBRO" style="whiteSpace=wrap;html=1;align=center;" parent="1" vertex="1">
          <mxGeometry x="120" y="110" width="80" height="40" as="geometry" />
        </mxCell>
        <mxCell id="jscMWhYlnVa92hubvsvF-37" style="edgeStyle=orthogonalEdgeStyle;rounded=0;orthogonalLoop=1;jettySize=auto;html=1;exitX=0.5;exitY=1;exitDx=0;exitDy=0;entryX=0.5;entryY=0;entryDx=0;entryDy=0;endArrow=none;endFill=0;" parent="1" source="jscMWhYlnVa92hubvsvF-3" target="jscMWhYlnVa92hubvsvF-6" edge="1">
          <mxGeometry relative="1" as="geometry" />
        </mxCell>
        <mxCell id="jscMWhYlnVa92hubvsvF-3" value="EJEMPLAR" style="shape=ext;margin=3;double=1;whiteSpace=wrap;html=1;align=center;" parent="1" vertex="1">
          <mxGeometry x="450" y="110" width="100" height="40" as="geometry" />
        </mxCell>
        <mxCell id="jscMWhYlnVa92hubvsvF-4" value="USUARIO" style="whiteSpace=wrap;html=1;align=center;" parent="1" vertex="1">
          <mxGeometry x="450" y="340" width="100" height="40" as="geometry" />
        </mxCell>
        <mxCell id="jscMWhYlnVa92hubvsvF-36" style="edgeStyle=orthogonalEdgeStyle;rounded=0;orthogonalLoop=1;jettySize=auto;html=1;exitX=1;exitY=0.5;exitDx=0;exitDy=0;entryX=0;entryY=0.5;entryDx=0;entryDy=0;endArrow=none;endFill=0;shape=link;" parent="1" target="jscMWhYlnVa92hubvsvF-3" edge="1">
          <mxGeometry relative="1" as="geometry">
            <mxPoint x="370" y="130" as="sourcePoint" />
          </mxGeometry>
        </mxCell>
        <mxCell id="jscMWhYlnVa92hubvsvF-38" style="edgeStyle=orthogonalEdgeStyle;rounded=0;orthogonalLoop=1;jettySize=auto;html=1;exitX=0.5;exitY=1;exitDx=0;exitDy=0;entryX=0.5;entryY=0;entryDx=0;entryDy=0;endArrow=none;endFill=0;" parent="1" source="jscMWhYlnVa92hubvsvF-6" target="jscMWhYlnVa92hubvsvF-4" edge="1">
          <mxGeometry relative="1" as="geometry" />
        </mxCell>
        <mxCell id="jscMWhYlnVa92hubvsvF-6" value="Prestado a" style="shape=rhombus;perimeter=rhombusPerimeter;whiteSpace=wrap;html=1;align=center;" parent="1" vertex="1">
          <mxGeometry x="460" y="230" width="80" height="40" as="geometry" />
        </mxCell>
        <mxCell id="pPCesXdhdkqCDGbyIbaA-13" style="edgeStyle=orthogonalEdgeStyle;rounded=0;orthogonalLoop=1;jettySize=auto;html=1;exitX=1;exitY=0.5;exitDx=0;exitDy=0;entryX=0;entryY=0.5;entryDx=0;entryDy=0;endArrow=none;endFill=0;" edge="1" parent="1" source="jscMWhYlnVa92hubvsvF-8" target="pPCesXdhdkqCDGbyIbaA-12">
          <mxGeometry relative="1" as="geometry" />
        </mxCell>
        <mxCell id="jscMWhYlnVa92hubvsvF-8" value="REVISTA" style="whiteSpace=wrap;html=1;align=center;" parent="1" vertex="1">
          <mxGeometry x="100" y="-100" width="100" height="40" as="geometry" />
        </mxCell>
        <mxCell id="jscMWhYlnVa92hubvsvF-19" value="editorial" style="ellipse;whiteSpace=wrap;html=1;align=center;" parent="1" vertex="1">
          <mxGeometry x="20" y="-25" width="100" height="40" as="geometry" />
        </mxCell>
        <mxCell id="jscMWhYlnVa92hubvsvF-20" value="fecha" style="ellipse;whiteSpace=wrap;html=1;align=center;" parent="1" vertex="1">
          <mxGeometry x="150" y="5" width="70" height="40" as="geometry" />
        </mxCell>
        <mxCell id="jscMWhYlnVa92hubvsvF-21" value="nro" style="ellipse;whiteSpace=wrap;html=1;align=center;" parent="1" vertex="1">
          <mxGeometry x="260" y="-5" width="60" height="40" as="geometry" />
        </mxCell>
        <mxCell id="jscMWhYlnVa92hubvsvF-23" style="edgeStyle=orthogonalEdgeStyle;rounded=0;orthogonalLoop=1;jettySize=auto;html=1;exitX=1;exitY=0;exitDx=0;exitDy=0;entryX=0.07;entryY=1.1;entryDx=0;entryDy=0;entryPerimeter=0;endArrow=none;endFill=0;" parent="1" source="jscMWhYlnVa92hubvsvF-19" target="jscMWhYlnVa92hubvsvF-8" edge="1">
          <mxGeometry relative="1" as="geometry" />
        </mxCell>
        <mxCell id="jscMWhYlnVa92hubvsvF-24" style="edgeStyle=orthogonalEdgeStyle;rounded=0;orthogonalLoop=1;jettySize=auto;html=1;exitX=0.5;exitY=0;exitDx=0;exitDy=0;entryX=0.44;entryY=1.1;entryDx=0;entryDy=0;entryPerimeter=0;endArrow=none;endFill=0;" parent="1" source="jscMWhYlnVa92hubvsvF-20" target="jscMWhYlnVa92hubvsvF-8" edge="1">
          <mxGeometry relative="1" as="geometry">
            <Array as="points">
              <mxPoint x="185" y="-15" />
              <mxPoint x="144" y="-15" />
            </Array>
          </mxGeometry>
        </mxCell>
        <mxCell id="jscMWhYlnVa92hubvsvF-25" style="edgeStyle=orthogonalEdgeStyle;rounded=0;orthogonalLoop=1;jettySize=auto;html=1;exitX=0;exitY=0.5;exitDx=0;exitDy=0;entryX=0.67;entryY=1.075;entryDx=0;entryDy=0;entryPerimeter=0;endArrow=none;endFill=0;" parent="1" source="jscMWhYlnVa92hubvsvF-21" target="jscMWhYlnVa92hubvsvF-8" edge="1">
          <mxGeometry relative="1" as="geometry">
            <Array as="points">
              <mxPoint x="260" y="-35" />
              <mxPoint x="167" y="-35" />
            </Array>
          </mxGeometry>
        </mxCell>
        <mxCell id="jscMWhYlnVa92hubvsvF-32" style="edgeStyle=orthogonalEdgeStyle;rounded=0;orthogonalLoop=1;jettySize=auto;html=1;exitX=1;exitY=0.5;exitDx=0;exitDy=0;entryX=0.5;entryY=1;entryDx=0;entryDy=0;endArrow=none;endFill=0;" parent="1" source="jscMWhYlnVa92hubvsvF-28" target="jscMWhYlnVa92hubvsvF-1" edge="1">
          <mxGeometry relative="1" as="geometry">
            <Array as="points">
              <mxPoint x="140" y="240" />
              <mxPoint x="140" y="150" />
            </Array>
          </mxGeometry>
        </mxCell>
        <mxCell id="jscMWhYlnVa92hubvsvF-28" value="autor" style="ellipse;whiteSpace=wrap;html=1;align=center;" parent="1" vertex="1">
          <mxGeometry x="50" y="220" width="70" height="40" as="geometry" />
        </mxCell>
        <mxCell id="jscMWhYlnVa92hubvsvF-29" value="editorial" style="ellipse;whiteSpace=wrap;html=1;align=center;" parent="1" vertex="1">
          <mxGeometry x="230" y="160" width="80" height="40" as="geometry" />
        </mxCell>
        <mxCell id="jscMWhYlnVa92hubvsvF-30" value="edicion" style="ellipse;whiteSpace=wrap;html=1;align=center;" parent="1" vertex="1">
          <mxGeometry x="220" y="230" width="80" height="40" as="geometry" />
        </mxCell>
        <mxCell id="jscMWhYlnVa92hubvsvF-33" style="edgeStyle=orthogonalEdgeStyle;rounded=0;orthogonalLoop=1;jettySize=auto;html=1;exitX=0.5;exitY=0;exitDx=0;exitDy=0;entryX=0.663;entryY=1.075;entryDx=0;entryDy=0;entryPerimeter=0;endArrow=none;endFill=0;" parent="1" source="jscMWhYlnVa92hubvsvF-30" target="jscMWhYlnVa92hubvsvF-1" edge="1">
          <mxGeometry relative="1" as="geometry">
            <Array as="points">
              <mxPoint x="260" y="210" />
              <mxPoint x="173" y="210" />
            </Array>
          </mxGeometry>
        </mxCell>
        <mxCell id="jscMWhYlnVa92hubvsvF-34" style="edgeStyle=orthogonalEdgeStyle;rounded=0;orthogonalLoop=1;jettySize=auto;html=1;exitX=0;exitY=0;exitDx=0;exitDy=0;entryX=0.838;entryY=1.05;entryDx=0;entryDy=0;entryPerimeter=0;endArrow=none;endFill=0;" parent="1" source="jscMWhYlnVa92hubvsvF-29" target="jscMWhYlnVa92hubvsvF-1" edge="1">
          <mxGeometry relative="1" as="geometry" />
        </mxCell>
        <mxCell id="pPCesXdhdkqCDGbyIbaA-7" style="edgeStyle=orthogonalEdgeStyle;rounded=0;orthogonalLoop=1;jettySize=auto;html=1;exitX=0;exitY=0.5;exitDx=0;exitDy=0;entryX=1;entryY=0.5;entryDx=0;entryDy=0;endArrow=none;endFill=0;" edge="1" parent="1" source="jscMWhYlnVa92hubvsvF-43" target="jscMWhYlnVa92hubvsvF-3">
          <mxGeometry relative="1" as="geometry" />
        </mxCell>
        <mxCell id="jscMWhYlnVa92hubvsvF-43" value="&lt;span style=&quot;border-bottom: 1px dotted&quot;&gt;nro&lt;/span&gt;" style="ellipse;whiteSpace=wrap;html=1;align=center;" parent="1" vertex="1">
          <mxGeometry x="600" y="70" width="70" height="40" as="geometry" />
        </mxCell>
        <mxCell id="jscMWhYlnVa92hubvsvF-45" value="nombre" style="ellipse;whiteSpace=wrap;html=1;align=center;" parent="1" vertex="1">
          <mxGeometry x="340" y="420" width="100" height="40" as="geometry" />
        </mxCell>
        <mxCell id="jscMWhYlnVa92hubvsvF-51" style="edgeStyle=orthogonalEdgeStyle;rounded=0;orthogonalLoop=1;jettySize=auto;html=1;exitX=0.5;exitY=0;exitDx=0;exitDy=0;entryX=0.5;entryY=1;entryDx=0;entryDy=0;endArrow=none;endFill=0;" parent="1" source="jscMWhYlnVa92hubvsvF-46" target="jscMWhYlnVa92hubvsvF-4" edge="1">
          <mxGeometry relative="1" as="geometry" />
        </mxCell>
        <mxCell id="jscMWhYlnVa92hubvsvF-46" value="apellido" style="ellipse;whiteSpace=wrap;html=1;align=center;" parent="1" vertex="1">
          <mxGeometry x="440" y="470" width="100" height="40" as="geometry" />
        </mxCell>
        <mxCell id="jscMWhYlnVa92hubvsvF-49" style="edgeStyle=orthogonalEdgeStyle;rounded=0;orthogonalLoop=1;jettySize=auto;html=1;exitX=1;exitY=0.5;exitDx=0;exitDy=0;entryX=0;entryY=0.5;entryDx=0;entryDy=0;endArrow=none;endFill=0;" parent="1" source="jscMWhYlnVa92hubvsvF-47" target="jscMWhYlnVa92hubvsvF-4" edge="1">
          <mxGeometry relative="1" as="geometry" />
        </mxCell>
        <mxCell id="jscMWhYlnVa92hubvsvF-47" value="contacto" style="ellipse;shape=doubleEllipse;margin=3;whiteSpace=wrap;html=1;align=center;" parent="1" vertex="1">
          <mxGeometry x="310" y="360" width="100" height="40" as="geometry" />
        </mxCell>
        <mxCell id="jscMWhYlnVa92hubvsvF-52" style="edgeStyle=orthogonalEdgeStyle;rounded=0;orthogonalLoop=1;jettySize=auto;html=1;exitX=0;exitY=0.5;exitDx=0;exitDy=0;entryX=0.75;entryY=1;entryDx=0;entryDy=0;endArrow=none;endFill=0;" parent="1" source="jscMWhYlnVa92hubvsvF-48" target="jscMWhYlnVa92hubvsvF-4" edge="1">
          <mxGeometry relative="1" as="geometry" />
        </mxCell>
        <mxCell id="jscMWhYlnVa92hubvsvF-48" value="id" style="ellipse;whiteSpace=wrap;html=1;align=center;fontStyle=4;" parent="1" vertex="1">
          <mxGeometry x="560" y="420" width="60" height="40" as="geometry" />
        </mxCell>
        <mxCell id="jscMWhYlnVa92hubvsvF-50" style="edgeStyle=orthogonalEdgeStyle;rounded=0;orthogonalLoop=1;jettySize=auto;html=1;exitX=1;exitY=0.5;exitDx=0;exitDy=0;entryX=0.12;entryY=1.075;entryDx=0;entryDy=0;entryPerimeter=0;endArrow=none;endFill=0;" parent="1" source="jscMWhYlnVa92hubvsvF-45" target="jscMWhYlnVa92hubvsvF-4" edge="1">
          <mxGeometry relative="1" as="geometry" />
        </mxCell>
        <mxCell id="jscMWhYlnVa92hubvsvF-53" value="N" style="text;html=1;align=center;verticalAlign=middle;resizable=0;points=[];autosize=1;strokeColor=none;fillColor=none;" parent="1" vertex="1">
          <mxGeometry x="420" y="100" width="30" height="30" as="geometry" />
        </mxCell>
        <mxCell id="jscMWhYlnVa92hubvsvF-54" value="1" style="text;html=1;align=center;verticalAlign=middle;resizable=0;points=[];autosize=1;strokeColor=none;fillColor=none;" parent="1" vertex="1">
          <mxGeometry x="200" y="100" width="30" height="30" as="geometry" />
        </mxCell>
        <mxCell id="jscMWhYlnVa92hubvsvF-55" value="N" style="text;html=1;align=center;verticalAlign=middle;resizable=0;points=[];autosize=1;strokeColor=none;fillColor=none;" parent="1" vertex="1">
          <mxGeometry x="500" y="150" width="30" height="30" as="geometry" />
        </mxCell>
        <mxCell id="jscMWhYlnVa92hubvsvF-56" value="N" style="text;html=1;align=center;verticalAlign=middle;resizable=0;points=[];autosize=1;strokeColor=none;fillColor=none;" parent="1" vertex="1">
          <mxGeometry x="505" y="310" width="30" height="30" as="geometry" />
        </mxCell>
        <mxCell id="jscMWhYlnVa92hubvsvF-58" style="edgeStyle=orthogonalEdgeStyle;rounded=0;orthogonalLoop=1;jettySize=auto;html=1;exitX=0.5;exitY=0;exitDx=0;exitDy=0;endArrow=none;endFill=0;" parent="1" source="jscMWhYlnVa92hubvsvF-57" edge="1">
          <mxGeometry relative="1" as="geometry">
            <mxPoint x="150" y="150" as="targetPoint" />
            <Array as="points">
              <mxPoint x="170" y="220" />
              <mxPoint x="150" y="220" />
            </Array>
          </mxGeometry>
        </mxCell>
        <mxCell id="jscMWhYlnVa92hubvsvF-57" value="titulo" style="ellipse;whiteSpace=wrap;html=1;align=center;" parent="1" vertex="1">
          <mxGeometry x="130" y="270" width="80" height="40" as="geometry" />
        </mxCell>
        <mxCell id="jscMWhYlnVa92hubvsvF-60" style="edgeStyle=orthogonalEdgeStyle;rounded=0;orthogonalLoop=1;jettySize=auto;html=1;exitX=1;exitY=0.5;exitDx=0;exitDy=0;entryX=0;entryY=0.5;entryDx=0;entryDy=0;endArrow=none;endFill=0;" parent="1" target="jscMWhYlnVa92hubvsvF-6" edge="1">
          <mxGeometry relative="1" as="geometry">
            <mxPoint x="420" y="250" as="sourcePoint" />
          </mxGeometry>
        </mxCell>
        <mxCell id="tKXMn6FPfdYJ9B3zSgQh-1" value="Tiene" style="shape=rhombus;double=1;perimeter=rhombusPerimeter;whiteSpace=wrap;html=1;align=center;" parent="1" vertex="1">
          <mxGeometry x="290" y="105" width="80" height="50" as="geometry" />
        </mxCell>
        <mxCell id="pPCesXdhdkqCDGbyIbaA-2" style="edgeStyle=orthogonalEdgeStyle;rounded=0;orthogonalLoop=1;jettySize=auto;html=1;exitX=1;exitY=0.5;exitDx=0;exitDy=0;entryX=0;entryY=0;entryDx=0;entryDy=0;endArrow=none;endFill=0;" edge="1" parent="1" source="pPCesXdhdkqCDGbyIbaA-1" target="jscMWhYlnVa92hubvsvF-6">
          <mxGeometry relative="1" as="geometry" />
        </mxCell>
        <mxCell id="pPCesXdhdkqCDGbyIbaA-1" value="fechaDevolucion" style="ellipse;whiteSpace=wrap;html=1;align=center;" vertex="1" parent="1">
          <mxGeometry x="350" y="180" width="100" height="40" as="geometry" />
        </mxCell>
        <mxCell id="pPCesXdhdkqCDGbyIbaA-3" value="fechaPrestamo" style="ellipse;whiteSpace=wrap;html=1;align=center;fontStyle=4;" vertex="1" parent="1">
          <mxGeometry x="330" y="230" width="100" height="40" as="geometry" />
        </mxCell>
        <mxCell id="pPCesXdhdkqCDGbyIbaA-5" style="edgeStyle=orthogonalEdgeStyle;rounded=0;orthogonalLoop=1;jettySize=auto;html=1;exitX=1;exitY=0.5;exitDx=0;exitDy=0;entryX=0;entryY=0.5;entryDx=0;entryDy=0;endArrow=none;endFill=0;" edge="1" parent="1" source="pPCesXdhdkqCDGbyIbaA-4" target="jscMWhYlnVa92hubvsvF-1">
          <mxGeometry relative="1" as="geometry" />
        </mxCell>
        <mxCell id="pPCesXdhdkqCDGbyIbaA-4" value="ISBN" style="ellipse;whiteSpace=wrap;html=1;align=center;fontStyle=4;" vertex="1" parent="1">
          <mxGeometry x="-30" y="110" width="100" height="40" as="geometry" />
        </mxCell>
        <mxCell id="pPCesXdhdkqCDGbyIbaA-9" style="edgeStyle=orthogonalEdgeStyle;rounded=0;orthogonalLoop=1;jettySize=auto;html=1;exitX=1;exitY=0.5;exitDx=0;exitDy=0;entryX=0;entryY=0.5;entryDx=0;entryDy=0;endArrow=none;endFill=0;" edge="1" parent="1" source="pPCesXdhdkqCDGbyIbaA-8" target="jscMWhYlnVa92hubvsvF-8">
          <mxGeometry relative="1" as="geometry" />
        </mxCell>
        <mxCell id="pPCesXdhdkqCDGbyIbaA-8" value="ISSN" style="ellipse;whiteSpace=wrap;html=1;align=center;fontStyle=4;" vertex="1" parent="1">
          <mxGeometry x="-30" y="-100" width="100" height="40" as="geometry" />
        </mxCell>
        <mxCell id="pPCesXdhdkqCDGbyIbaA-11" style="edgeStyle=orthogonalEdgeStyle;rounded=0;orthogonalLoop=1;jettySize=auto;html=1;exitX=0;exitY=0.5;exitDx=0;exitDy=0;entryX=1;entryY=0.75;entryDx=0;entryDy=0;endArrow=none;endFill=0;" edge="1" parent="1" source="pPCesXdhdkqCDGbyIbaA-10" target="jscMWhYlnVa92hubvsvF-3">
          <mxGeometry relative="1" as="geometry" />
        </mxCell>
        <mxCell id="pPCesXdhdkqCDGbyIbaA-10" value="autorizadoParaPrestamo" style="ellipse;whiteSpace=wrap;html=1;align=center;" vertex="1" parent="1">
          <mxGeometry x="590" y="140" width="170" height="40" as="geometry" />
        </mxCell>
        <mxCell id="pPCesXdhdkqCDGbyIbaA-12" value="Posee" style="shape=rhombus;double=1;perimeter=rhombusPerimeter;whiteSpace=wrap;html=1;align=center;" vertex="1" parent="1">
          <mxGeometry x="450" y="-105" width="80" height="50" as="geometry" />
        </mxCell>
        <mxCell id="pPCesXdhdkqCDGbyIbaA-14" style="edgeStyle=orthogonalEdgeStyle;rounded=0;orthogonalLoop=1;jettySize=auto;html=1;exitX=0.5;exitY=1;exitDx=0;exitDy=0;entryX=0.44;entryY=-0.1;entryDx=0;entryDy=0;entryPerimeter=0;endArrow=none;endFill=0;shape=link;" edge="1" parent="1" source="pPCesXdhdkqCDGbyIbaA-12" target="jscMWhYlnVa92hubvsvF-3">
          <mxGeometry relative="1" as="geometry" />
        </mxCell>
        <mxCell id="pPCesXdhdkqCDGbyIbaA-15" value="N" style="text;html=1;align=center;verticalAlign=middle;resizable=0;points=[];autosize=1;strokeColor=none;fillColor=none;" vertex="1" parent="1">
          <mxGeometry x="495" y="78" width="30" height="30" as="geometry" />
        </mxCell>
        <mxCell id="pPCesXdhdkqCDGbyIbaA-16" value="1" style="text;html=1;align=center;verticalAlign=middle;resizable=0;points=[];autosize=1;strokeColor=none;fillColor=none;" vertex="1" parent="1">
          <mxGeometry x="200" y="-110" width="30" height="30" as="geometry" />
        </mxCell>
      </root>
    </mxGraphModel>
  </diagram>
</mxfile>
